<?xml version="1.0" encoding="UTF-8" standalone="no"?>
<svg
   xmlns:svg="http://www.w3.org/2000/svg"
   xmlns="http://www.w3.org/2000/svg"
   version="1.1"
   width="32"
   height="32"
   viewBox="0 0 24 24"
   style="fill:black;stroke:none;">
  <path d="M 19.924706,7.3694118 12.639764,14.65353 C 12.255176,14.018589 11.780823,13.394353 11.200235,12.817883 10.613881,12.234 9.9797637,11.757176 9.3316465,11.373412 L 16.630588,4.075294 c 0.66953,0.3154118 1.334941,0.7609412 1.933647,1.3596472 0.600353,0.5995294 1.045059,1.2649412 1.360471,1.9344706 z M 11.294117,16 H 8.0000003 v -3.294117 l 0.3952935,-0.395295 c 0.6695287,0.317059 1.3349409,0.762589 1.9336472,1.360471 0.599529,0.600353 1.044235,1.264118 1.36047,1.933647 z M 20.875883,6.4190589 C 20.491294,5.7832941 20.016941,5.1607058 19.436353,4.5834117 18.849177,4.0003528 18.215882,3.5227058 17.567765,3.138941 l 1.138117,-1.1389412 c 0,0 1.647059,0 2.470589,0.8235294 C 22,3.6470587 22,5.2941176 22,5.2941176 Z M 3.9999996,2 C 2.9069375,2 1.9999998,2.9069372 1.9999998,4 v 16 c 0,1.093063 0.9069377,2 1.9999998,2 H 20 c 1.093063,0 2,-0.906937 2,-2 V 7.6582031 L 20,9.65625 V 20 H 3.9999996 V 6 H 12.34375 l 3.998047,-4 z" />
</svg>
