<?xml version="1.0" encoding="UTF-8" standalone="no"?>
<svg
  xmlns:svg="http://www.w3.org/2000/svg"
  xmlns="http://www.w3.org/2000/svg"
  width="32"
  height="32"
  viewBox="0 0 24 24"
  version="1.1">

  <path d="M 4 2 C 2.9069372 2 2 2.9069372 2 4 L 2 20 C 2 21.093063 2.9069372 22 4 22 L 20 22 C 21.093063 22 22 21.093063 22 20 L 22 17 L 20 17 L 20 20 L 4 20 L 4 6 L 20 6 L 20 8 L 22 8 L 22 4 C 22 2.9069372 21.093063 2 20 2 L 4 2 z M 17.941406 8.5117188 C 17.528995 8.5520735 17.135648 8.8340763 17.048828 9.2636719 C 16.918852 9.7085219 17.179582 10.128461 17.507812 10.40625 L 18.595703 11.494141 C 16.533777 11.496541 14.479788 11.489647 12.417969 11.498047 C 11.717714 11.528327 11.261867 12.391624 11.632812 12.986328 C 11.854831 13.422418 12.360491 13.529022 12.806641 13.494141 L 18.603516 13.494141 C 18.149112 13.954539 17.683545 14.405889 17.236328 14.873047 C 16.780711 15.402097 17.090471 16.325812 17.779297 16.464844 C 18.238211 16.60039 18.654106 16.320056 18.939453 15.988281 C 19.885628 15.036973 20.843705 14.094344 21.783203 13.136719 C 21.928782 12.953616 22.007016 12.718193 22 12.484375 C 22.01442 11.9285 21.509169 11.612501 21.175781 11.246094 C 20.329938 10.405841 19.493353 9.5536411 18.640625 8.7207031 C 18.442164 8.5496127 18.188853 8.4875059 17.941406 8.5117188 z" />
</svg>