<?xml version="1.0" encoding="UTF-8" standalone="no"?>
<!-- Created with Inkscape (http://www.inkscape.org/) -->

<svg
   xmlns:dc="http://purl.org/dc/elements/1.1/"
   xmlns:cc="http://creativecommons.org/ns#"
   xmlns:rdf="http://www.w3.org/1999/02/22-rdf-syntax-ns#"
   xmlns:svg="http://www.w3.org/2000/svg"
   xmlns="http://www.w3.org/2000/svg"
   xmlns:sodipodi="http://sodipodi.sourceforge.net/DTD/sodipodi-0.dtd"
   xmlns:inkscape="http://www.inkscape.org/namespaces/inkscape"
   width="512"
   height="460"
   viewBox="0 0 512.00001 460.00001"
   id="svg4263"
   version="1.1"
   inkscape:version="0.91 r13725"
   sodipodi:docname="happy_devices.svg">
  <defs
     id="defs4265" />
  <sodipodi:namedview
     id="base"
     pagecolor="#6688cc"
     bordercolor="#666666"
     borderopacity="1.0"
     inkscape:pageopacity="1"
     inkscape:pageshadow="2"
     inkscape:zoom="0.98994949"
     inkscape:cx="255.5972"
     inkscape:cy="248.42486"
     inkscape:document-units="px"
     inkscape:current-layer="layer1"
     showgrid="false"
     units="px"
     inkscape:window-width="1366"
     inkscape:window-height="719"
     inkscape:window-x="0"
     inkscape:window-y="25"
     inkscape:window-maximized="1" />
  <metadata
     id="metadata4268">
    <rdf:RDF>
      <cc:Work
         rdf:about="">
        <dc:format>image/svg+xml</dc:format>
        <dc:type
           rdf:resource="http://purl.org/dc/dcmitype/StillImage" />
        <dc:title></dc:title>
      </cc:Work>
    </rdf:RDF>
  </metadata>
  <g
     inkscape:label="Ebene 1"
     inkscape:groupmode="layer"
     id="layer1"
     transform="translate(0,-592.36216)">
    <g
       id="g4219"
       transform="matrix(1.6497533,0,0,1.6497533,-274.30184,367.43298)">
      <g
         transform="matrix(0.85565016,0,0,0.85714286,230.98163,-179.13094)"
         id="g4773">
        <path
           transform="scale(0.9375,0.9375)"
           sodipodi:nodetypes="scssssccccccccss"
           inkscape:connector-curvature="0"
           id="path4767"
           d="m 162.43908,439.36914 c -6.13454,0 -11.03408,2.37116 -15.16174,6.24609 C 142.79497,449.82317 140,455.10742 140,461.76914 l 0,66.93632 c 0,12.79628 9.64282,22.66368 22.43908,22.66368 l 22.43907,0 c 12.61808,0 22.15766,-9.85192 22.43908,-22.4 l -44.87815,0 0,-22.4 22.43907,0 0,-22.31328 -22.43907,0 0,-22.48672 44.87815,0 c -0.28141,-12.54807 -9.79682,-22.4 -22.41489,-22.4 z"
           style="font-style:normal;font-variant:normal;font-weight:600;font-stretch:normal;font-size:180px;line-height:125%;font-family:'URW Gothic L';-inkscape-font-specification:'URW Gothic L Semi-Bold';letter-spacing:0px;word-spacing:0px;fill:#ffffff;fill-opacity:1;stroke:none;stroke-width:2px;stroke-linecap:butt;stroke-linejoin:miter;stroke-opacity:1" />
        <path
           inkscape:connector-curvature="0"
           id="path4769"
           style="fill:#ffffff;fill-opacity:1;stroke:none;stroke-width:1.87499988"
           d="m 194.3599,439.90857 42.07327,0 -21.03663,21 -21.03664,0 z"
           sodipodi:nodetypes="ccccc" />
        <path
           inkscape:connector-curvature="0"
           id="path4771"
           style="opacity:0.5;fill:#ffffff;fill-opacity:1;stroke:none;stroke-width:1.87499988"
           d="m 194.3599,488.90857 42.07327,0 -21.03663,-21 -21.03664,0 z"
           sodipodi:nodetypes="ccccc" />
      </g>
      <path
         sodipodi:nodetypes="cc"
         inkscape:connector-curvature="0"
         id="path4252"
         d="m 375.53479,203.93358 0,-5"
         style="fill:none;fill-rule:evenodd;stroke:#000000;stroke-width:4;stroke-linecap:round;stroke-linejoin:miter;stroke-miterlimit:4;stroke-dasharray:none;stroke-opacity:1" />
      <path
         style="fill:none;fill-rule:evenodd;stroke:#000000;stroke-width:4;stroke-linecap:round;stroke-linejoin:miter;stroke-miterlimit:4;stroke-dasharray:none;stroke-opacity:1"
         d="m 388.23642,203.93358 0,-5"
         id="path4254"
         inkscape:connector-curvature="0"
         sodipodi:nodetypes="cc" />
      <path
         sodipodi:nodetypes="ccc"
         inkscape:connector-curvature="0"
         id="path4256"
         d="m 384.68157,211.93358 4.20584,14 -5.38347,0"
         style="fill:none;fill-rule:evenodd;stroke:#000000;stroke-width:4;stroke-linecap:round;stroke-linejoin:round;stroke-miterlimit:4;stroke-dasharray:none;stroke-opacity:1" />
      <path
         inkscape:connector-curvature="0"
         id="path4258"
         d="m 386.53214,236.16464 c 0,0 -4.54231,4.71054 -9.42108,0.16823"
         style="fill:none;fill-rule:evenodd;stroke:#000000;stroke-width:4;stroke-linecap:round;stroke-linejoin:miter;stroke-miterlimit:4;stroke-dasharray:none;stroke-opacity:1" />
    </g>
    <g
       transform="matrix(0.81366466,0,0,0.81366466,-243.75262,752.3152)"
       id="g4549">
      <g
         id="g4539"
         transform="matrix(0.85565016,0,0,0.85714286,230.98163,-179.13094)">
        <path
           style="font-style:normal;font-variant:normal;font-weight:600;font-stretch:normal;font-size:180px;line-height:125%;font-family:'URW Gothic L';-inkscape-font-specification:'URW Gothic L Semi-Bold';letter-spacing:0px;word-spacing:0px;fill:#ffffff;fill-opacity:1;stroke:none;stroke-width:2px;stroke-linecap:butt;stroke-linejoin:miter;stroke-opacity:1"
           d="m 162.43908,439.36914 c -6.13454,0 -11.03408,2.37116 -15.16174,6.24609 C 142.79497,449.82317 140,455.10742 140,461.76914 l 0,66.93632 c 0,12.79628 9.64282,22.66368 22.43908,22.66368 l 22.43907,0 c 12.61808,0 22.15766,-9.85192 22.43908,-22.4 l -44.87815,0 0,-22.4 22.43907,0 0,-22.31328 -22.43907,0 0,-22.48672 44.87815,0 c -0.28141,-12.54807 -9.79682,-22.4 -22.41489,-22.4 z"
           id="path4533"
           inkscape:connector-curvature="0"
           sodipodi:nodetypes="scssssccccccccss"
           transform="scale(0.9375,0.9375)" />
        <path
           sodipodi:nodetypes="ccccc"
           d="m 194.3599,439.90857 42.07327,0 -21.03663,21 -21.03664,0 z"
           style="fill:#ffffff;fill-opacity:1;stroke:none;stroke-width:1.87499988"
           id="path4535"
           inkscape:connector-curvature="0" />
        <path
           sodipodi:nodetypes="ccccc"
           d="m 194.3599,488.90857 42.07327,0 -21.03663,-21 -21.03664,0 z"
           style="opacity:0.5;fill:#ffffff;fill-opacity:1;stroke:none;stroke-width:1.87499988"
           id="path4537"
           inkscape:connector-curvature="0" />
      </g>
      <path
         style="fill:none;fill-rule:evenodd;stroke:#000000;stroke-width:4;stroke-linecap:round;stroke-linejoin:miter;stroke-miterlimit:4;stroke-dasharray:none;stroke-opacity:1"
         d="m 375.53479,203.93358 0,-5"
         id="path4541"
         inkscape:connector-curvature="0"
         sodipodi:nodetypes="cc" />
      <path
         sodipodi:nodetypes="cc"
         inkscape:connector-curvature="0"
         id="path4543"
         d="m 388.23642,203.93358 0,-5"
         style="fill:none;fill-rule:evenodd;stroke:#000000;stroke-width:4;stroke-linecap:round;stroke-linejoin:miter;stroke-miterlimit:4;stroke-dasharray:none;stroke-opacity:1" />
      <path
         style="fill:none;fill-rule:evenodd;stroke:#000000;stroke-width:4;stroke-linecap:round;stroke-linejoin:round;stroke-miterlimit:4;stroke-dasharray:none;stroke-opacity:1"
         d="m 384.68157,211.93358 4.20584,14 -5.38347,0"
         id="path4545"
         inkscape:connector-curvature="0"
         sodipodi:nodetypes="ccc" />
      <path
         style="fill:none;fill-rule:evenodd;stroke:#000000;stroke-width:4;stroke-linecap:round;stroke-linejoin:miter;stroke-miterlimit:4;stroke-dasharray:none;stroke-opacity:1"
         d="m 386.53214,236.16464 c 0,0 -4.54231,4.71054 -9.42108,0.16823"
         id="path4547"
         inkscape:connector-curvature="0" />
    </g>
    <path
       style="fill:#666666;stroke-width:0.53086811"
       d="m 195.46196,608.17665 c -12.55651,0 -22.08135,9.66239 -22.08135,24.98637 l 0,74.91575 22.29382,0 -0.36657,-74.75414 279.5564,-1.17068 0,187.62046 -180.00116,0.6425 -0.9811,41.64789 177.13556,0 c 14.19625,0 24.98243,-9.53521 24.98243,-24.98637 l 0,-203.91541 c 0,-14.94557 -9.73226,-24.98637 -20.79048,-24.98637 z m 98.42004,261.81094 0,39.0976 87.45031,0 -28.25403,-39.0976 z"
       id="path4512"
       inkscape:connector-curvature="0"
       sodipodi:nodetypes="sscccccccsssssccccc" />
    <path
       style="fill:#666666;stroke-width:0.53086811"
       d="m 247.59474,725.67447 -116.35866,0.37445 c -19.34467,0 -30.1618,10.68751 -30.1618,29.09755 l 0,63.65039 22.11681,0.067 -0.008,-58.95979 130.98231,0.0315 0,176.22503 -110.95065,0 0,40.30772 102.90566,-0.37053 c 19.05,-0.0688 30.17668,-11.68742 30.1618,-30.67027 L 276.1324,753.66826 c -0.0141,-18.33636 -10.80777,-28.05054 -28.53784,-27.99387 z m -59.39731,219.94624 c 6.06059,0 10.97366,4.91308 10.97366,10.97367 0,6.06058 -4.91307,10.97366 -10.97366,10.97366 -6.06059,0 -10.97366,-4.91308 -10.97366,-10.97366 0,-6.06059 4.91307,-10.97367 10.97366,-10.97367 z"
       id="path4558"
       inkscape:connector-curvature="0" />
    <path
       style="fill:#666666;stroke-width:0.53086811"
       d="m 104.43173,836.15319 c -25.707174,0.0731 -43.351026,-0.14672 -69.052343,0.111 -11.767419,0.89186 -20.61775,12.5686 -19.23738,24.10803 0.01816,51.84814 -0.03713,103.6972 0.02785,155.54478 0.282782,11.9848 11.923623,21.6395 23.719134,20.3251 24.932868,-0.073 41.802419,0.1465 66.729458,-0.1108 11.76669,-0.889 20.62009,-12.5623 19.23843,-24.1017 -0.0182,-51.84809 0.0371,-103.6971 -0.0279,-155.54459 -0.35715,-11.09554 -10.28713,-20.54776 -21.3974,-20.33172 z m -74.728597,25.66999 82.592697,0 0,135.91275 -82.592697,0 z m 41.303856,164.00722 c -12.959275,0.3793 -10.765692,-20.9425 1.817562,-17.9076 10.531406,1.9159 8.809343,18.0794 -1.817562,17.9076 z"
       id="path4518"
       inkscape:connector-curvature="0"
       sodipodi:nodetypes="cccccccccccccccccc" />
    <g
       id="g4567"
       transform="matrix(1.0603268,0,0,1.0603268,-218.54397,611.82063)">
      <g
         transform="matrix(0.85565016,0,0,0.85714286,230.98163,-179.13094)"
         id="g4557">
        <path
           transform="scale(0.9375,0.9375)"
           sodipodi:nodetypes="scssssccccccccss"
           inkscape:connector-curvature="0"
           id="path4551"
           d="m 162.43908,439.36914 c -6.13454,0 -11.03408,2.37116 -15.16174,6.24609 C 142.79497,449.82317 140,455.10742 140,461.76914 l 0,66.93632 c 0,12.79628 9.64282,22.66368 22.43908,22.66368 l 22.43907,0 c 12.61808,0 22.15766,-9.85192 22.43908,-22.4 l -44.87815,0 0,-22.4 22.43907,0 0,-22.31328 -22.43907,0 0,-22.48672 44.87815,0 c -0.28141,-12.54807 -9.79682,-22.4 -22.41489,-22.4 z"
           style="font-style:normal;font-variant:normal;font-weight:600;font-stretch:normal;font-size:180px;line-height:125%;font-family:'URW Gothic L';-inkscape-font-specification:'URW Gothic L Semi-Bold';letter-spacing:0px;word-spacing:0px;fill:#ffffff;fill-opacity:1;stroke:none;stroke-width:2px;stroke-linecap:butt;stroke-linejoin:miter;stroke-opacity:1" />
        <path
           inkscape:connector-curvature="0"
           id="path4553"
           style="fill:#ffffff;fill-opacity:1;stroke:none;stroke-width:1.87499988"
           d="m 194.3599,439.90857 42.07327,0 -21.03663,21 -21.03664,0 z"
           sodipodi:nodetypes="ccccc" />
        <path
           inkscape:connector-curvature="0"
           id="path4555"
           style="opacity:0.5;fill:#ffffff;fill-opacity:1;stroke:none;stroke-width:1.87499988"
           d="m 194.3599,488.90857 42.07327,0 -21.03663,-21 -21.03664,0 z"
           sodipodi:nodetypes="ccccc" />
      </g>
      <path
         sodipodi:nodetypes="cc"
         inkscape:connector-curvature="0"
         id="path4559"
         d="m 375.53479,203.93358 0,-5"
         style="fill:none;fill-rule:evenodd;stroke:#000000;stroke-width:4;stroke-linecap:round;stroke-linejoin:miter;stroke-miterlimit:4;stroke-dasharray:none;stroke-opacity:1" />
      <path
         style="fill:none;fill-rule:evenodd;stroke:#000000;stroke-width:4;stroke-linecap:round;stroke-linejoin:miter;stroke-miterlimit:4;stroke-dasharray:none;stroke-opacity:1"
         d="m 388.23642,203.93358 0,-5"
         id="path4561"
         inkscape:connector-curvature="0"
         sodipodi:nodetypes="cc" />
      <path
         sodipodi:nodetypes="ccc"
         inkscape:connector-curvature="0"
         id="path4563"
         d="m 384.68157,211.93358 4.20584,14 -5.38347,0"
         style="fill:none;fill-rule:evenodd;stroke:#000000;stroke-width:4;stroke-linecap:round;stroke-linejoin:round;stroke-miterlimit:4;stroke-dasharray:none;stroke-opacity:1" />
      <path
         inkscape:connector-curvature="0"
         id="path4565"
         d="m 386.53214,236.16464 c 0,0 -4.54231,4.71054 -9.42108,0.16823"
         style="fill:none;fill-rule:evenodd;stroke:#000000;stroke-width:4;stroke-linecap:round;stroke-linejoin:miter;stroke-miterlimit:4;stroke-dasharray:none;stroke-opacity:1" />
    </g>
  </g>
</svg>
