<?xml version="1.0" encoding="UTF-8" standalone="no"?>
<svg
  xmlns:svg="http://www.w3.org/2000/svg"
  xmlns="http://www.w3.org/2000/svg"
  width="32"
  height="32"
  viewBox="0 0 24 24"
  version="1.1">

  <path d="M 4 2 C 2.9069372 2 2 2.9069372 2 4 L 2 8 L 4 8 L 4 6 L 20 6 L 20 20 L 4 20 L 4 17 L 2 17 L 2 20 C 2 21.093063 2.9069372 22 4 22 L 20 22 C 21.093063 22 22 21.093063 22 20 L 22 4 C 22 2.9069372 21.093063 2 20 2 L 4 2 z M 8.4492188 8.5117188 C 8.0368079 8.5520735 7.6434606 8.8340763 7.5566406 9.2636719 C 7.4266646 9.7085219 7.687395 10.128461 8.015625 10.40625 L 9.1035156 11.494141 C 7.0415896 11.496541 4.9797877 11.489647 2.9179688 11.498047 C 2.2177138 11.528327 1.7618665 12.391624 2.1328125 12.986328 C 2.3548315 13.422418 2.8604906 13.529022 3.3066406 13.494141 L 9.1113281 13.494141 C 8.6569241 13.954539 8.1913576 14.405889 7.7441406 14.873047 C 7.2885236 15.402097 7.5982834 16.325812 8.2871094 16.464844 C 8.7460234 16.60039 9.1619186 16.320056 9.4472656 15.988281 C 10.393441 15.036973 11.351518 14.094344 12.291016 13.136719 C 12.436595 12.953616 12.514829 12.718193 12.507812 12.484375 C 12.522232 11.9285 12.016982 11.612501 11.683594 11.246094 C 10.837751 10.405841 10.001166 9.5536411 9.1484375 8.7207031 C 8.9499766 8.5496127 8.6966653 8.4875059 8.4492188 8.5117188 z" />
</svg>