<?xml version="1.0" encoding="UTF-8" standalone="no"?>
<svg
   xmlns:svg="http://www.w3.org/2000/svg"
   xmlns="http://www.w3.org/2000/svg"
   version="1.1"
   width="32"
   height="32"
   viewBox="0 0 24 24"
   style="fill:black;stroke:none;">
  <path d="M 16.18438,5.809777 C 16.136953,4.6478216 15.97096,4.0312738 15.567832,3.3672992 14.832718,2.2527705 13.291348,1.5650826 11.441705,1.5650826 c -2.869319,0 -4.9560961,1.7073631 -4.9560961,4.0787008 0,0.7351147 0.2371337,1.5176561 0.6402611,2.0393504 0.1422803,0.2134204 0.2134204,0.2845605 0.8062549,0.877395 -1.6836498,1.2805223 -2.1816307,2.0630642 -2.1816307,3.4858662 0,1.304236 0.6639745,2.418765 1.8733568,3.130166 l 4.054987,2.371338 c 0.995962,0.545407 0.995962,0.545407 1.233096,0.782541 0.260847,0.260847 0.426841,0.640261 0.426841,1.067102 0,0.853682 -0.735115,1.446516 -1.802217,1.446516 -0.592834,0 -1.138242,-0.189707 -1.470229,-0.521694 C 9.7580549,20.037803 9.6632014,19.705816 9.6157746,18.946988 V 18.709854 H 6.5093222 c 0.023713,3.153879 1.7073632,4.766389 5.0035228,4.766389 3.082739,0 5.169516,-1.82593 5.169516,-4.529255 0,-1.351663 -0.545408,-2.395051 -1.659936,-3.177593 1.588796,-0.735114 2.229057,-1.683649 2.229057,-3.272446 0,-1.612509 -0.735115,-2.7507514 -2.300198,-3.6281463 L 11.939686,7.2088663 C 10.256036,6.2840446 9.8054816,5.8572038 9.8054816,5.1932292 c 0,-0.7351147 0.6165474,-1.2093822 1.5176564,-1.2093822 1.114528,0 1.68365,0.5691211 1.849643,1.82593 z m -3.225019,5.643784 c 1.114528,0.592834 1.446516,0.995962 1.446516,1.75479 0,0.545407 -0.284561,0.972248 -1.090816,1.541369 L 9.829195,12.85265 C 8.8806599,12.330956 8.572386,11.927828 8.572386,11.192714 c 0,-0.687688 0.2845606,-1.114529 0.9959619,-1.5413699 z" />
</svg>
