<?xml version="1.0" encoding="UTF-8" standalone="no"?>
<svg
  xmlns:svg="http://www.w3.org/2000/svg"
  xmlns="http://www.w3.org/2000/svg"
  width="32"
  height="32"
  viewBox="0 0 24 24"
  version="1.1">

  <path d="M 4,2 C 2.9069372,2 2,2.9069372 2,4 v 16 c 0,1.093063 0.9069372,2 2,2 h 16 c 1.093063,0 2,-0.906937 2,-2 V 4 C 22,2.9069372 21.093063,2 20,2 Z M 4,6 H 20 V 20 H 4 Z" />
  <path d="m 19.018466,11.108776 -5.427557,1.248358 v 4.962468 C 13.280894,17.165045 12.90731,17.075284 12.5,17.075284 c -0.472332,0 -0.905316,0.11504 -1.238636,0.319602 -0.33332,0.204562 -0.579546,0.520855 -0.579546,0.893466 0,0.37261 0.246226,0.688905 0.579546,0.893466 C 11.594684,19.38638 12.027668,19.5 12.5,19.5 c 0.472332,0 0.905317,-0.11362 1.238636,-0.318182 0.333321,-0.204561 0.579546,-0.520856 0.579546,-0.893466 0,-0.01871 -0.0073,-0.03556 -0.0085,-0.05398 h 0.0085 v -4.343148 l 3.984375,-0.891823 v 3.181217 c -0.310015,-0.154556 -0.683599,-0.242898 -1.090909,-0.242898 -0.472332,0 -0.905317,0.113619 -1.238637,0.318182 -0.33332,0.204561 -0.579545,0.520855 -0.579545,0.893466 0,0.372611 0.246225,0.688905 0.579545,0.893466 0.33332,0.204561 0.766305,0.318182 1.238637,0.318182 0.472331,0 0.905317,-0.113621 1.238636,-0.318182 0.333321,-0.204561 0.579546,-0.520855 0.579546,-0.893466 0,-0.02415 -0.0093,-0.04594 -0.01137,-0.0696 z" />
  <path d="M 9.4316406,7 C 7.720709,7 6.1743656,7.9135315 5.2480469,9.3378906 L 5.0078125,9.7285156 5.25,10.164062 C 6.1765404,11.58701 7.7216615,12.5 9.4316406,12.5 c 1.7109324,0 3.2553214,-0.913531 4.1816404,-2.337891 L 13.845703,9.7558594 13.611328,9.3359375 C 12.684793,7.9129846 11.14162,6.9999998 9.4316406,7 Z M 8.953125,7.9472656 C 8.2531163,8.1570274 7.7324219,8.8025628 7.7324219,9.5664062 c 0,0.9308368 0.7683824,1.6972658 1.6992187,1.6972658 0.9308364,0 1.6972654,-0.766429 1.6972654,-1.6972658 0,-0.7638434 -0.519213,-1.4093788 -1.2187498,-1.6191406 C 11.076567,8.0945412 12.100348,8.7717685 12.775391,9.75 c -0.76596,1.109984 -1.98088,1.833984 -3.3437504,1.833984 -1.3628697,0 -2.5777911,-0.724001 -3.34375,-1.833984 C 6.7629325,8.7717686 7.7867146,8.0945412 8.953125,7.9472656 Z" />
</svg>