<?xml version="1.0" encoding="UTF-8" standalone="no"?>
<!-- Created with Inkscape (http://www.inkscape.org/) -->

<svg
   xmlns:dc="http://purl.org/dc/elements/1.1/"
   xmlns:cc="http://creativecommons.org/ns#"
   xmlns:rdf="http://www.w3.org/1999/02/22-rdf-syntax-ns#"
   xmlns:svg="http://www.w3.org/2000/svg"
   xmlns="http://www.w3.org/2000/svg"
   xmlns:sodipodi="http://sodipodi.sourceforge.net/DTD/sodipodi-0.dtd"
   xmlns:inkscape="http://www.inkscape.org/namespaces/inkscape"
   width="48"
   height="48"
   viewBox="0 0 12.7 12.7"
   version="1.1"
   id="svg8"
   inkscape:version="0.92.0 r15299"
   sodipodi:docname="ready.svg">
  <defs
     id="defs2" />
  <sodipodi:namedview
     id="base"
     pagecolor="#ffffff"
     bordercolor="#666666"
     borderopacity="1.0"
     inkscape:pageopacity="0.0"
     inkscape:pageshadow="2"
     inkscape:zoom="20.541667"
     inkscape:cx="24"
     inkscape:cy="24"
     inkscape:document-units="mm"
     inkscape:current-layer="layer1"
     showgrid="true"
     units="px"
     inkscape:window-width="1856"
     inkscape:window-height="1177"
     inkscape:window-x="-8"
     inkscape:window-y="-8"
     inkscape:window-maximized="1">
    <inkscape:grid
       type="xygrid"
       id="grid4536"
       empspacing="4" />
  </sodipodi:namedview>
  <metadata
     id="metadata5">
    <rdf:RDF>
      <cc:Work
         rdf:about="">
        <dc:format>image/svg+xml</dc:format>
        <dc:type
           rdf:resource="http://purl.org/dc/dcmitype/StillImage" />
        <dc:title></dc:title>
      </cc:Work>
    </rdf:RDF>
  </metadata>
  <g
     inkscape:label="Layer 1"
     inkscape:groupmode="layer"
     id="layer1"
     transform="translate(0,-284.3)">
    <path
       inkscape:connector-curvature="0"
       id="path4530"
       d="M 0,284.3 H 6.3500004 12.7 v 6.35 6.35 H 6.3500004 0 c 0,-4.23333 0,-8.46667 0,-12.7 z"
       style="fill:#4c42d6;stroke-width:0.03295645"
       sodipodi:nodetypes="cccccccc" />
    <path
       inkscape:connector-curvature="0"
       id="path4532"
       d="m 0.26458333,288.00416 v -1.05833 H 1.3229167 2.3812502 v 1.05833 1.05834 H 1.3229167 0.26458333 Z m 0.2645831,-2.24895 v -0.92605 H 1.1906252 1.852083 v 0.13228 0.1323 h 0.1322926 0.1322916 v 0.26459 0.26459 H 1.9843756 1.852083 v 0.13229 0.13228 H 1.7197915 1.5875 v 0.1323 0.13229 H 1.7197915 1.852083 v 0.13229 0.1323 h 0.1322926 0.1322916 v 0.13229 0.1323 H 1.852083 1.5875 v -0.1323 -0.13229 H 1.4552083 1.3229167 v -0.1323 -0.13229 H 1.1906252 1.0583337 v 0.26459 0.26459 H 0.79375033 0.52916643 Z M 1.5875,285.35833 v -0.26459 H 1.3229167 1.0583337 v 0.26459 0.26459 H 1.3229167 1.5875 Z m 1.0583335,0.39688 v -0.92605 h 0.7937501 0.7937496 v 0.13228 0.1323 H 3.7041669 3.1750006 v 0.26459 0.26459 h 0.264583 0.2645833 v 0.13229 0.13228 H 3.4395836 3.1750006 v 0.26459 0.26459 h 0.5291663 0.5291663 v 0.13229 0.1323 H 3.4395836 2.6458335 Z m 2.1166669,0.26458 v -0.66146 H 4.894792 5.0270835 v -0.1323 -0.13229 H 5.159375 5.2916667 v -0.1323 -0.13228 h 0.2645841 0.2645823 v 0.13228 0.1323 h 0.1322916 0.1322922 v 0.13229 0.1323 h 0.1322917 0.1322916 v 0.66146 0.66147 H 6.0854169 5.8208331 v -0.39689 -0.39688 H 5.5562508 5.2916667 v 0.39688 0.39689 H 5.0270835 4.7625004 Z m 1.0583327,-0.52917 v -0.13229 H 5.5562499 5.2916667 v 0.13229 0.1323 h 0.2645832 0.2645832 z m 1.0583334,0.26459 v -0.92605 h 0.5291663 0.5291669 v 0.13228 0.1323 h 0.1322924 0.1322915 v 0.13229 0.1323 h 0.132292 0.132291 v 0.39688 0.39687 h -0.132291 -0.132292 v 0.13229 0.1323 H 8.0697921 7.9374997 v 0.13229 0.1323 H 7.4083328 6.8791665 Z m 0.7937501,0.52916 v -0.13229 h 0.1322917 0.1322914 v -0.39687 -0.39688 H 7.8052083 7.6729166 v -0.1323 -0.13229 H 7.5406253 7.4083328 v 0.66147 0.66146 h 0.1322925 0.1322913 z m 1.852084,0 v -0.39688 h -0.132292 -0.132292 v -0.13228 -0.13229 h -0.132292 -0.132291 v -0.39689 -0.39687 h 0.264583 0.264584 v 0.39687 0.39689 h 0.264582 0.2645844 v -0.39689 -0.39687 h 0.264583 0.264582 v 0.39687 0.39689 H 10.45104 10.31875 v 0.13229 0.13228 h -0.132291 -0.132292 v 0.39688 0.39689 H 9.7895826 9.5250006 Z m 2.1166654,0.1323 v -0.26459 h 0.264582 0.264584 v 0.26459 0.26459 h -0.264584 -0.264582 z"
       style="fill:#a296fc;stroke-width:0.02645834" />
  </g>
</svg>
