<?xml version="1.0" encoding="UTF-8" standalone="no"?>
<!-- Created with Inkscape (http://www.inkscape.org/) -->

<svg
   xmlns:dc="http://purl.org/dc/elements/1.1/"
   xmlns:cc="http://creativecommons.org/ns#"
   xmlns:rdf="http://www.w3.org/1999/02/22-rdf-syntax-ns#"
   xmlns:svg="http://www.w3.org/2000/svg"
   xmlns="http://www.w3.org/2000/svg"
   xmlns:sodipodi="http://sodipodi.sourceforge.net/DTD/sodipodi-0.dtd"
   xmlns:inkscape="http://www.inkscape.org/namespaces/inkscape"
   width="64"
   height="64"
   viewBox="0 0 16.933333 16.933333"
   version="1.1"
   id="svg8"
   inkscape:version="0.92.0 r15299"
   sodipodi:docname="ready_border.svg">
  <defs
     id="defs2" />
  <sodipodi:namedview
     id="base"
     pagecolor="#ffffff"
     bordercolor="#666666"
     borderopacity="1.0"
     inkscape:pageopacity="0.0"
     inkscape:pageshadow="2"
     inkscape:zoom="10.270833"
     inkscape:cx="18.46723"
     inkscape:cy="30.117594"
     inkscape:document-units="mm"
     inkscape:current-layer="layer1"
     showgrid="true"
     units="px"
     inkscape:window-width="1856"
     inkscape:window-height="1177"
     inkscape:window-x="-8"
     inkscape:window-y="-8"
     inkscape:window-maximized="1">
    <inkscape:grid
       type="xygrid"
       id="grid4536"
       empspacing="4" />
  </sodipodi:namedview>
  <metadata
     id="metadata5">
    <rdf:RDF>
      <cc:Work
         rdf:about="">
        <dc:format>image/svg+xml</dc:format>
        <dc:type
           rdf:resource="http://purl.org/dc/dcmitype/StillImage" />
        <dc:title></dc:title>
      </cc:Work>
    </rdf:RDF>
  </metadata>
  <g
     inkscape:label="Layer 1"
     inkscape:groupmode="layer"
     id="layer1"
     transform="translate(0,-280.06667)">
    <rect
       style="opacity:1;fill:#a296fc;fill-opacity:1;stroke-width:0.26458332"
       id="rect4493"
       width="16.933332"
       height="16.933332"
       x="0"
       y="280.06668" />
    <path
       inkscape:connector-curvature="0"
       id="path4530"
       d="m 2.1166667,282.18334 h 6.3500004 6.3499999 v 6.35 6.35 H 8.4666671 2.1166667 c 0,-4.23333 0,-8.46667 0,-12.7 z"
       style="fill:#4c42d6;stroke-width:0.03295645"
       sodipodi:nodetypes="cccccccc" />
    <path
       inkscape:connector-curvature="0"
       id="path4532"
       d="m 2.38125,285.8875 v -1.05833 h 1.0583334 1.0583335 v 1.05833 1.05834 H 3.4395834 2.38125 Z m 0.2645831,-2.24895 v -0.92605 h 0.6614588 0.6614578 v 0.13228 0.1323 h 0.1322926 0.1322916 v 0.26459 0.26459 H 4.1010423 3.9687497 v 0.13229 0.13228 H 3.8364582 3.7041667 v 0.1323 0.13229 h 0.1322915 0.1322915 v 0.13229 0.1323 h 0.1322926 0.1322916 v 0.13229 0.1323 H 3.9687497 3.7041667 v -0.1323 -0.13229 H 3.571875 3.4395834 v -0.1323 -0.13229 H 3.3072919 3.1750004 v 0.26459 0.26459 H 2.910417 2.6458331 Z m 1.0583336,-0.39688 v -0.26459 H 3.4395834 3.1750004 v 0.26459 0.26459 h 0.264583 0.2645833 z m 1.0583335,0.39688 v -0.92605 h 0.7937501 0.7937496 v 0.13228 0.1323 H 5.8208336 5.2916673 v 0.26459 0.26459 h 0.264583 0.2645833 v 0.13229 0.13228 H 5.5562503 5.2916673 v 0.26459 0.26459 h 0.5291663 0.5291663 v 0.13229 0.1323 H 5.5562503 4.7625002 Z m 2.1166669,0.26458 v -0.66146 h 0.1322916 0.1322915 v -0.1323 -0.13229 h 0.1322915 0.1322917 v -0.1323 -0.13228 h 0.2645841 0.2645823 v 0.13228 0.1323 h 0.1322916 0.1322922 v 0.13229 0.1323 h 0.1322917 0.1322916 v 0.66146 0.66147 H 8.2020836 7.9374998 v -0.39689 -0.39688 H 7.6729175 7.4083334 v 0.39688 0.39689 H 7.1437502 6.8791671 Z m 1.0583327,-0.52917 v -0.13229 H 7.6729166 7.4083334 v 0.13229 0.1323 h 0.2645832 0.2645832 z m 1.0583334,0.26459 v -0.92605 h 0.5291663 0.5291665 v 0.13228 0.1323 h 0.132293 0.132291 v 0.13229 0.1323 h 0.132292 0.132291 v 0.39688 0.39687 H 10.451042 10.31875 v 0.13229 0.1323 h -0.132291 -0.132293 v 0.13229 0.1323 H 9.5249995 8.9958332 Z m 0.7937501,0.52916 v -0.13229 h 0.1322917 0.132291 v -0.39687 -0.39688 H 9.921875 9.7895833 v -0.1323 -0.13229 H 9.657292 9.5249995 v 0.66147 0.66146 H 9.657292 9.7895833 Z m 1.8520837,0 v -0.39688 h -0.132292 -0.132292 v -0.13228 -0.13229 H 11.244791 11.1125 v -0.39689 -0.39687 h 0.264583 0.264584 v 0.39687 0.39689 h 0.264582 0.264585 v -0.39689 -0.39687 h 0.264583 0.264582 v 0.39687 0.39689 h -0.132292 -0.13229 v 0.13229 0.13228 h -0.132291 -0.132292 v 0.39688 0.39689 h -0.264585 -0.264582 z m 2.116666,0.1323 v -0.26459 h 0.264582 0.264584 v 0.26459 0.26459 h -0.264584 -0.264582 z"
       style="fill:#a296fc;stroke-width:0.02645834" />
  </g>
</svg>
