<?xml version="1.0" encoding="UTF-8" standalone="no"?>
<!-- Created with Inkscape (http://www.inkscape.org/) -->

<svg
   xmlns:dc="http://purl.org/dc/elements/1.1/"
   xmlns:cc="http://creativecommons.org/ns#"
   xmlns:rdf="http://www.w3.org/1999/02/22-rdf-syntax-ns#"
   xmlns:svg="http://www.w3.org/2000/svg"
   xmlns="http://www.w3.org/2000/svg"
   xmlns:sodipodi="http://sodipodi.sourceforge.net/DTD/sodipodi-0.dtd"
   xmlns:inkscape="http://www.inkscape.org/namespaces/inkscape"
   width="200"
   height="128"
   viewBox="0 0 52.916665 33.866668"
   version="1.1"
   id="svg8"
   inkscape:version="0.92.3 (2405546, 2018-03-11)"
   sodipodi:docname="saucer.svg"
   inkscape:export-filename="D:\sync\eludi\elowo\masterdata\saucer.png"
   inkscape:export-xdpi="96"
   inkscape:export-ydpi="96">
  <defs
     id="defs2" />
  <sodipodi:namedview
     id="base"
     pagecolor="#ffffff"
     bordercolor="#666666"
     borderopacity="1.0"
     inkscape:pageopacity="0.0"
     inkscape:pageshadow="2"
     inkscape:zoom="2.6328125"
     inkscape:cx="81.578635"
     inkscape:cy="64"
     inkscape:document-units="mm"
     inkscape:current-layer="layer1"
     showgrid="false"
     units="px"
     inkscape:window-width="1280"
     inkscape:window-height="737"
     inkscape:window-x="-8"
     inkscape:window-y="-8"
     inkscape:window-maximized="1" />
  <metadata
     id="metadata5">
    <rdf:RDF>
      <cc:Work
         rdf:about="">
        <dc:format>image/svg+xml</dc:format>
        <dc:type
           rdf:resource="http://purl.org/dc/dcmitype/StillImage" />
        <dc:title />
      </cc:Work>
    </rdf:RDF>
  </metadata>
  <g
     inkscape:label="Layer 1"
     inkscape:groupmode="layer"
     id="layer1"
     transform="translate(0,-263.13332)">
    <path
       style="color:#000000;font-style:normal;font-variant:normal;font-weight:normal;font-stretch:normal;font-size:medium;line-height:normal;font-family:sans-serif;font-variant-ligatures:normal;font-variant-position:normal;font-variant-caps:normal;font-variant-numeric:normal;font-variant-alternates:normal;font-feature-settings:normal;text-indent:0;text-align:start;text-decoration:none;text-decoration-line:none;text-decoration-style:solid;text-decoration-color:#000000;letter-spacing:normal;word-spacing:normal;text-transform:none;writing-mode:lr-tb;direction:ltr;text-orientation:mixed;dominant-baseline:auto;baseline-shift:baseline;text-anchor:start;white-space:normal;shape-padding:0;clip-rule:nonzero;display:inline;overflow:visible;visibility:visible;opacity:1;isolation:auto;mix-blend-mode:normal;color-interpolation:sRGB;color-interpolation-filters:linearRGB;solid-color:#000000;solid-opacity:1;vector-effect:none;fill:#0d1e59;fill-opacity:1;fill-rule:nonzero;stroke:none;stroke-width:0.88328403;stroke-linecap:butt;stroke-linejoin:miter;stroke-miterlimit:4;stroke-dasharray:none;stroke-dashoffset:0;stroke-opacity:1;color-rendering:auto;image-rendering:auto;shape-rendering:auto;text-rendering:auto;enable-background:accumulate"
       d="m 26.755253,265.95471 a 1.2984119,1.2984119 0 0 1 -0.441386,0.079 1.2984119,1.2984119 0 0 1 -0.441842,-0.0786 v 5.7636 a 9.3249585,8.144584 0 0 1 0.441842,-0.0192 9.3249585,8.144584 0 0 1 0.441386,0.0141 z m 8.721842,14.27502 c -0.815733,1.00711 -4.668493,1.73831 -9.163228,1.73908 -4.451828,-8.9e-4 -8.279861,-0.71877 -9.140407,-1.71397 -8.5836643,1.03505 -14.7562264,3.40461 -16.59879088,6.21273 0.0779211,0.15188 0.1984763,0.31447 0.38615791,0.49067 0.32349297,0.30374 0.81970827,0.62524 1.46794217,0.93527 1.2964491,0.62008 3.1926529,1.19873 5.5276047,1.68385 4.6698971,0.97024 11.1036161,1.57905 18.2073201,1.59575 7.103707,0.0167 13.599589,-0.56094 18.374382,-1.5095 2.387395,-0.47425 4.346874,-1.04468 5.715663,-1.66146 1.158081,-0.52185 1.837789,-1.0873 2.083236,-1.53641 -1.869361,-2.83551 -8.15357,-5.22028 -16.85988,-6.23601 z m -21.306159,3.05228 a 1.5831529,2.1297675 49.232913 0 1 1.289471,1.83628 1.5831529,2.1297675 49.232913 0 1 -2.382669,1.8363 1.5831529,2.1297675 49.232913 0 1 -1.289468,-1.8363 1.5831529,2.1297675 49.232913 0 1 2.382666,-1.83628 z m 24.57799,0 a 2.1297675,1.5831529 40.767087 0 1 2.382667,1.83628 2.1297675,1.5831529 40.767087 0 1 -1.289472,1.8363 2.1297675,1.5831529 40.767087 0 1 -2.383122,-1.8363 2.1297675,1.5831529 40.767087 0 1 1.289927,-1.83628 z m -12.316838,1.28353 c 1.042835,1.4e-4 1.888185,0.8455 1.888332,1.88833 1.05e-4,1.04302 -0.845318,1.88864 -1.888332,1.8888 -1.043195,10e-5 -1.888895,-0.84561 -1.888789,-1.8888 1.48e-4,-1.04301 0.845773,-1.88844 1.888789,-1.88833 z M 0.11959011,287.43295 C 0.04397575,287.6936 4.5338232e-4,287.95668 0,288.22216 c 2.3370223e-4,4.70172 11.845881,8.51319 26.458105,8.51324 14.612403,3e-5 26.458229,-3.81145 26.458562,-8.51324 -0.0012,-0.25999 -0.04326,-0.51747 -0.116391,-0.77277 -0.479954,0.53347 -1.22856,0.98362 -2.163573,1.40494 -1.475294,0.6648 -3.484472,1.24243 -5.915588,1.7254 -4.862248,0.9659 -11.405436,1.54505 -18.561068,1.52818 -7.155626,-0.0169 -13.634647,-0.62533 -18.3953783,-1.61447 -2.3803625,-0.49454 -4.3294882,-1.08183 -5.7398555,-1.7564 -0.7051871,-0.3373 -1.27675727,-0.6958 -1.70438328,-1.09731 -0.0714077,-0.067 -0.13737953,-0.13641 -0.20083669,-0.20678 z"
       id="path4510"
       inkscape:connector-curvature="0" />
    <path
       style="opacity:0.5;fill:#f9f9f9;fill-opacity:1;stroke:none;stroke-width:3.53313613;stroke-linejoin:miter;stroke-miterlimit:4;stroke-dasharray:none"
       d="M 99.453125 1.1484375 A 4.9073836 4.9073836 0 0 0 94.544922 6.0546875 A 4.9073836 4.9073836 0 0 0 99.453125 10.962891 A 4.9073836 4.9073836 0 0 0 104.36133 6.0546875 A 4.9073836 4.9073836 0 0 0 99.453125 1.1484375 z M 99.453125 32.376953 A 35.243941 30.78268 0 0 0 64.210938 63.158203 A 35.243941 30.78268 0 0 0 64.275391 64.798828 A 100.00036 32.176774 0 0 1 64.908203 64.710938 A 35.243938 8.0302636 0 0 0 99.453125 71.189453 A 35.243938 8.0302636 0 0 0 134.08594 64.617188 A 100.00036 32.176774 0 0 1 134.61133 64.679688 A 35.243941 30.78268 0 0 0 134.69727 63.158203 A 35.243941 30.78268 0 0 0 99.453125 32.376953 z "
       transform="matrix(0.26458333,0,0,0.26458333,0,263.13332)"
       id="path4542" />
    <path
       style="opacity:1;fill:#f9f9f9;fill-opacity:1;stroke:none;stroke-width:3.53313613;stroke-linejoin:miter;stroke-miterlimit:4;stroke-dasharray:none"
       d="M 53.558594 76.152344 A 5.98357 8.049515 49.232913 0 0 44.554688 83.09375 A 5.98357 8.049515 49.232913 0 0 49.427734 90.033203 A 5.98357 8.049515 49.232913 0 0 58.433594 83.09375 A 5.98357 8.049515 49.232913 0 0 53.558594 76.152344 z M 146.45312 76.152344 A 8.049515 5.98357 40.767087 0 0 141.57812 83.09375 A 8.049515 5.98357 40.767087 0 0 150.58398 90.033203 A 8.049515 5.98357 40.767087 0 0 155.45703 83.09375 A 8.049515 5.98357 40.767087 0 0 146.45312 76.152344 z M 99.900391 81.003906 C 95.958283 81.003491 92.762278 84.19854 92.761719 88.140625 C 92.761318 92.08339 95.957606 95.279675 99.900391 95.279297 C 103.84249 95.278692 107.03751 92.082748 107.03711 88.140625 C 107.03655 84.19922 103.84181 81.004435 99.900391 81.003906 z M 197.80859 88.185547 C 196.881 89.88297 194.31269 92.019803 189.93555 93.992188 C 184.76213 96.323325 177.35526 98.479043 168.33203 100.27148 C 150.28557 103.85659 125.73342 106.03979 98.884766 105.97656 C 72.036117 105.91344 47.720317 103.61236 30.070312 99.945312 C 21.245298 98.111788 14.079653 95.925641 9.1796875 93.582031 C 6.7296783 92.410264 4.8515568 91.194869 3.6289062 90.046875 C 2.919373 89.380695 2.4643999 88.767243 2.1699219 88.193359 C 1.384859 89.389958 0.80929938 90.605828 0.45117188 91.839844 C 0.69147802 92.106678 0.94043176 92.368987 1.2109375 92.623047 C 2.8271529 94.140565 4.9870697 95.494697 7.6523438 96.769531 C 12.982857 99.319087 20.351011 101.53908 29.347656 103.4082 C 47.34098 107.14669 71.828169 109.44604 98.873047 109.50977 C 125.91796 109.57364 150.64836 107.38502 169.02539 103.73438 C 178.21386 101.90898 185.80689 99.725521 191.38281 97.212891 C 194.91674 95.6205 197.74656 93.918608 199.56055 91.902344 C 199.20024 90.644328 198.61225 89.404558 197.80859 88.185547 z "
       transform="matrix(0.26458333,0,0,0.26458333,0,263.13332)"
       id="path4538" />
  </g>
</svg>
